<svg width="20" height="17" viewBox="0 0 20 17" fill="none" xmlns="http://www.w3.org/2000/svg">
<path fill-rule="evenodd" clip-rule="evenodd" d="M0.799988 0.999976C0.799988 0.502919 1.18614 0.0999756 1.66249 0.0999756H14.8875C15.3638 0.0999756 15.75 0.502919 15.75 0.999976C15.75 1.49703 15.3638 1.89998 14.8875 1.89998H1.66249C1.18614 1.89998 0.799988 1.49703 0.799988 0.999976ZM0.799988 5.49998C0.799988 5.00292 1.18614 4.59998 1.66249 4.59998H10.2969C10.7733 4.59998 11.1594 5.00292 11.1594 5.49998C11.1594 5.99703 10.7733 6.39998 10.2969 6.39998H1.66249C1.18614 6.39998 0.799988 5.99703 0.799988 5.49998ZM14.6 4.89998C15.0763 4.89998 15.4625 5.30292 15.4625 5.79998L15.4625 13.7081L17.7055 11.1876C18.0296 10.8233 18.5753 10.8022 18.9244 11.1405C19.2734 11.4787 19.2937 12.0481 18.9695 12.4124L15.232 16.6124C15.0688 16.7958 14.8398 16.9 14.6 16.9C14.3602 16.9 14.1311 16.7958 13.968 16.6124L10.2305 12.4124C9.90632 12.0481 9.92653 11.4787 10.2756 11.1405C10.6247 10.8022 11.1704 10.8233 11.4945 11.1876L13.7375 13.7081L13.7375 5.79998C13.7375 5.30292 14.1236 4.89998 14.6 4.89998ZM0.799988 9.99998C0.799988 9.50292 1.18614 9.09998 1.66249 9.09998H6.90884C7.38519 9.09998 7.77134 9.50292 7.77134 9.99998C7.77134 10.497 7.38519 10.9 6.90884 10.9H1.66249C1.18614 10.9 0.799988 10.497 0.799988 9.99998Z" fill="#667085"/>
</svg>
